<mxfile host="app.diagrams.net" modified="2022-05-20T06:49:23.836Z" agent="5.0 (Windows NT 10.0; Win64; x64) AppleWebKit/537.36 (KHTML, like Gecko) Chrome/84.0.4147.89 Safari/537.36" etag="RWKs-u3g6S-rKrsaj958" version="18.0.8" type="github">
  <diagram id="iBaOn8JmMCTzaOdQRKCn" name="Page-1">
    <mxGraphModel dx="1422" dy="713" grid="0" gridSize="10" guides="1" tooltips="1" connect="1" arrows="1" fold="1" page="1" pageScale="1" pageWidth="827" pageHeight="1169" math="0" shadow="0">
      <root>
        <mxCell id="0" />
        <mxCell id="1" parent="0" />
        <mxCell id="2xFIK6NcM6oKs8QwjtaN-1" value="" style="rounded=0;whiteSpace=wrap;html=1;strokeWidth=2;" vertex="1" parent="1">
          <mxGeometry x="77" y="76" width="607" height="62" as="geometry" />
        </mxCell>
        <mxCell id="2xFIK6NcM6oKs8QwjtaN-2" value="&lt;font style=&quot;font-size: 14px;&quot;&gt;智慧港口信息平台&lt;/font&gt;" style="rounded=0;whiteSpace=wrap;html=1;strokeWidth=0.2;" vertex="1" parent="1">
          <mxGeometry x="141" y="89.5" width="525" height="35" as="geometry" />
        </mxCell>
        <mxCell id="2xFIK6NcM6oKs8QwjtaN-3" value="" style="rounded=0;whiteSpace=wrap;html=1;strokeWidth=2;" vertex="1" parent="1">
          <mxGeometry x="77" y="151.5" width="607" height="81" as="geometry" />
        </mxCell>
        <mxCell id="2xFIK6NcM6oKs8QwjtaN-4" value="平&lt;br&gt;台&lt;br&gt;支&lt;br&gt;撑&lt;br&gt;层" style="text;html=1;resizable=0;autosize=1;align=center;verticalAlign=middle;points=[];fillColor=none;strokeColor=none;rounded=0;fontSize=14;" vertex="1" parent="1">
          <mxGeometry x="90" y="147" width="24" height="89" as="geometry" />
        </mxCell>
        <mxCell id="2xFIK6NcM6oKs8QwjtaN-8" value="" style="rounded=0;whiteSpace=wrap;html=1;strokeWidth=0.2;shadow=0;sketch=0;" vertex="1" parent="1">
          <mxGeometry x="139" y="165.5" width="525" height="47" as="geometry" />
        </mxCell>
        <mxCell id="2xFIK6NcM6oKs8QwjtaN-11" value="&lt;font style=&quot;font-size: 12px;&quot; color=&quot;#ffffff&quot;&gt;用户管理&lt;/font&gt;" style="rounded=0;whiteSpace=wrap;html=1;fontSize=12;strokeWidth=0;fillColor=#000000;" vertex="1" parent="1">
          <mxGeometry x="170" y="173" width="87" height="32" as="geometry" />
        </mxCell>
        <mxCell id="2xFIK6NcM6oKs8QwjtaN-14" value="&lt;font style=&quot;font-size: 12px;&quot; color=&quot;#ffffff&quot;&gt;报表服务&lt;/font&gt;" style="rounded=0;whiteSpace=wrap;html=1;fontSize=12;strokeWidth=0;fillColor=#000000;" vertex="1" parent="1">
          <mxGeometry x="294" y="173" width="87" height="32" as="geometry" />
        </mxCell>
        <mxCell id="2xFIK6NcM6oKs8QwjtaN-15" value="&lt;font style=&quot;font-size: 12px;&quot; color=&quot;#ffffff&quot;&gt;信息服务&lt;/font&gt;" style="rounded=0;whiteSpace=wrap;html=1;fontSize=12;strokeWidth=0;fillColor=#000000;" vertex="1" parent="1">
          <mxGeometry x="420" y="173" width="87" height="32" as="geometry" />
        </mxCell>
        <mxCell id="2xFIK6NcM6oKs8QwjtaN-16" value="&lt;font size=&quot;1&quot; style=&quot;&quot; color=&quot;#ffffff&quot;&gt;&lt;b style=&quot;&quot;&gt;......&lt;/b&gt;&lt;/font&gt;" style="rounded=0;whiteSpace=wrap;html=1;fontSize=12;strokeWidth=0;fillColor=#000000;" vertex="1" parent="1">
          <mxGeometry x="546" y="173" width="87" height="32" as="geometry" />
        </mxCell>
        <mxCell id="2xFIK6NcM6oKs8QwjtaN-17" value="" style="rounded=0;whiteSpace=wrap;html=1;strokeWidth=2;" vertex="1" parent="1">
          <mxGeometry x="77" y="248.5" width="607" height="105.5" as="geometry" />
        </mxCell>
        <mxCell id="2xFIK6NcM6oKs8QwjtaN-18" value="平&lt;br&gt;台&lt;br&gt;服&lt;br&gt;务&lt;br&gt;层" style="text;html=1;resizable=0;autosize=1;align=center;verticalAlign=middle;points=[];fillColor=none;strokeColor=none;rounded=0;fontSize=14;" vertex="1" parent="1">
          <mxGeometry x="90" y="258.75" width="24" height="89" as="geometry" />
        </mxCell>
        <mxCell id="2xFIK6NcM6oKs8QwjtaN-19" value="&lt;font style=&quot;font-size: 14px;&quot;&gt;共享服务中心&lt;/font&gt;" style="rounded=0;whiteSpace=wrap;html=1;strokeWidth=0.2;shadow=0;sketch=0;" vertex="1" parent="1">
          <mxGeometry x="139" y="261" width="525" height="25" as="geometry" />
        </mxCell>
        <mxCell id="2xFIK6NcM6oKs8QwjtaN-20" value="" style="rounded=0;whiteSpace=wrap;html=1;strokeWidth=0.2;shadow=0;sketch=0;" vertex="1" parent="1">
          <mxGeometry x="139" y="298" width="525" height="45" as="geometry" />
        </mxCell>
        <mxCell id="2xFIK6NcM6oKs8QwjtaN-21" value="&lt;font color=&quot;#ffffff&quot;&gt;分布式存储&lt;/font&gt;" style="rounded=0;whiteSpace=wrap;html=1;fontSize=12;strokeWidth=0;fillColor=#000000;" vertex="1" parent="1">
          <mxGeometry x="150" y="308" width="71" height="27" as="geometry" />
        </mxCell>
        <mxCell id="2xFIK6NcM6oKs8QwjtaN-33" style="edgeStyle=orthogonalEdgeStyle;rounded=0;orthogonalLoop=1;jettySize=auto;html=1;exitX=0.5;exitY=1;exitDx=0;exitDy=0;fontSize=14;fontColor=#FFFFFF;" edge="1" parent="1">
          <mxGeometry relative="1" as="geometry">
            <mxPoint x="328" y="476" as="sourcePoint" />
            <mxPoint x="328" y="476" as="targetPoint" />
          </mxGeometry>
        </mxCell>
        <mxCell id="2xFIK6NcM6oKs8QwjtaN-35" style="edgeStyle=orthogonalEdgeStyle;rounded=0;orthogonalLoop=1;jettySize=auto;html=1;exitX=0.5;exitY=1;exitDx=0;exitDy=0;fontSize=14;fontColor=#FFFFFF;" edge="1" parent="1">
          <mxGeometry relative="1" as="geometry">
            <mxPoint x="546" y="494" as="sourcePoint" />
            <mxPoint x="546" y="494" as="targetPoint" />
          </mxGeometry>
        </mxCell>
        <mxCell id="2xFIK6NcM6oKs8QwjtaN-36" value="&lt;font color=&quot;#ffffff&quot;&gt;分布式缓存&lt;/font&gt;" style="rounded=0;whiteSpace=wrap;html=1;fontSize=12;strokeWidth=0;fillColor=#000000;" vertex="1" parent="1">
          <mxGeometry x="235" y="308" width="71" height="27" as="geometry" />
        </mxCell>
        <mxCell id="2xFIK6NcM6oKs8QwjtaN-37" value="&lt;font color=&quot;#ffffff&quot;&gt;微服务调度&lt;/font&gt;" style="rounded=0;whiteSpace=wrap;html=1;fontSize=12;strokeWidth=0;fillColor=#000000;" vertex="1" parent="1">
          <mxGeometry x="320" y="308" width="71" height="27" as="geometry" />
        </mxCell>
        <mxCell id="2xFIK6NcM6oKs8QwjtaN-39" value="&lt;font color=&quot;#ffffff&quot;&gt;即时通信&lt;/font&gt;" style="rounded=0;whiteSpace=wrap;html=1;fontSize=12;strokeWidth=0;fillColor=#000000;" vertex="1" parent="1">
          <mxGeometry x="405" y="308" width="71" height="27" as="geometry" />
        </mxCell>
        <mxCell id="2xFIK6NcM6oKs8QwjtaN-40" value="&lt;font color=&quot;#ffffff&quot;&gt;搜索引擎&lt;/font&gt;" style="rounded=0;whiteSpace=wrap;html=1;fontSize=12;strokeWidth=0;fillColor=#000000;" vertex="1" parent="1">
          <mxGeometry x="490" y="308" width="71" height="27" as="geometry" />
        </mxCell>
        <mxCell id="2xFIK6NcM6oKs8QwjtaN-41" value="&lt;b style=&quot;color: rgb(255, 255, 255); font-size: x-small;&quot;&gt;......&lt;/b&gt;" style="rounded=0;whiteSpace=wrap;html=1;fontSize=12;strokeWidth=0;fillColor=#000000;" vertex="1" parent="1">
          <mxGeometry x="575" y="308" width="71" height="27" as="geometry" />
        </mxCell>
        <mxCell id="2xFIK6NcM6oKs8QwjtaN-42" value="" style="rounded=0;whiteSpace=wrap;html=1;strokeWidth=2;" vertex="1" parent="1">
          <mxGeometry x="77" y="368" width="607" height="81" as="geometry" />
        </mxCell>
        <mxCell id="2xFIK6NcM6oKs8QwjtaN-43" value="" style="rounded=0;whiteSpace=wrap;html=1;strokeWidth=0.2;shadow=0;sketch=0;" vertex="1" parent="1">
          <mxGeometry x="136" y="385" width="525" height="47" as="geometry" />
        </mxCell>
        <mxCell id="2xFIK6NcM6oKs8QwjtaN-44" value="基&lt;br&gt;础&lt;br&gt;设&lt;br&gt;施&lt;br&gt;层" style="text;html=1;resizable=0;autosize=1;align=center;verticalAlign=middle;points=[];fillColor=none;strokeColor=none;rounded=0;fontSize=14;" vertex="1" parent="1">
          <mxGeometry x="90" y="364" width="24" height="89" as="geometry" />
        </mxCell>
        <mxCell id="2xFIK6NcM6oKs8QwjtaN-45" value="&lt;font style=&quot;font-size: 12px;&quot; color=&quot;#ffffff&quot;&gt;服务器系统&lt;/font&gt;" style="rounded=0;whiteSpace=wrap;html=1;fontSize=12;strokeWidth=0;fillColor=#000000;" vertex="1" parent="1">
          <mxGeometry x="170" y="392.75" width="87" height="31.5" as="geometry" />
        </mxCell>
        <mxCell id="2xFIK6NcM6oKs8QwjtaN-46" value="&lt;font style=&quot;font-size: 12px;&quot; color=&quot;#ffffff&quot;&gt;网络系统&lt;/font&gt;" style="rounded=0;whiteSpace=wrap;html=1;fontSize=12;strokeWidth=0;fillColor=#000000;" vertex="1" parent="1">
          <mxGeometry x="291" y="392.75" width="87" height="31.5" as="geometry" />
        </mxCell>
        <mxCell id="2xFIK6NcM6oKs8QwjtaN-47" value="&lt;font style=&quot;font-size: 12px;&quot; color=&quot;#ffffff&quot;&gt;数据存储&lt;/font&gt;" style="rounded=0;whiteSpace=wrap;html=1;fontSize=12;strokeWidth=0;fillColor=#000000;" vertex="1" parent="1">
          <mxGeometry x="416" y="392.75" width="87" height="31.5" as="geometry" />
        </mxCell>
        <mxCell id="2xFIK6NcM6oKs8QwjtaN-48" value="&lt;font style=&quot;font-size: 12px;&quot; color=&quot;#ffffff&quot;&gt;数据备份&lt;/font&gt;" style="rounded=0;whiteSpace=wrap;html=1;fontSize=12;strokeWidth=0;fillColor=#000000;" vertex="1" parent="1">
          <mxGeometry x="541" y="392.75" width="87" height="31.5" as="geometry" />
        </mxCell>
        <mxCell id="2xFIK6NcM6oKs8QwjtaN-49" value="运&lt;br&gt;维&lt;br&gt;管&lt;br&gt;控&lt;br&gt;及&lt;br&gt;接&lt;br&gt;口" style="rounded=0;whiteSpace=wrap;html=1;shadow=0;sketch=0;fontSize=14;fontColor=#FFFFFF;strokeWidth=0.2;fillColor=#000000;" vertex="1" parent="1">
          <mxGeometry x="698" y="75" width="41" height="374" as="geometry" />
        </mxCell>
      </root>
    </mxGraphModel>
  </diagram>
</mxfile>
